<?xml version="1.0" encoding="UTF-8"?>
<svg fill="currentColor" version="1.1" viewBox="0 0 20 20" xmlns="http://www.w3.org/2000/svg">
  <g transform="translate(0 -.066944)">
    <path d="m1.4244 0.87126a1.2251 1.2251 0 0 0 0 2.4502v9.8007a2.4502 2.4502 0 0 0 2.4502 2.4502h3.1681l-1.584 1.584a1.2251 1.2251 0 1 0 1.7323 1.7323l2.8091-2.8091 2.8091 2.8091a1.2251 1.2251 0 0 0 1.7323-1.7323l-1.584-1.584h3.1681a2.4502 2.4502 0 0 0 2.4502-2.4502v-9.8007a1.2251 1.2251 0 1 0 0-2.4502z" fill="#0971ce" stroke-width="1.2251" />
    <g transform="matrix(1.2251 0 0 1.2251 -201.8 -47.432)">
      <path d="m175.18 42.268-1.589 2.3582c-0.10988 0.16059 0.10143 0.355 0.25357 0.21976l1.5637-1.3608c0.0423-0.03381 0.10142-0.0085 0.10142 0.05072v4.2515c0 0.05917-0.0761 0.08452-0.10988 0.04226l-4.7333-5.663c-0.15214-0.18595-0.3719-0.28738-0.61702-0.28738h-0.16904c-0.43952 0-0.80297 0.36345-0.80297 0.81142v5.9842c0 0.44797 0.36345 0.81142 0.81142 0.81142 0.27893 0 0.54095-0.14369 0.69309-0.38881l1.589-2.3582c0.10988-0.16059-0.10142-0.355-0.25357-0.21976l-1.5637 1.3524c-0.0423 0.03381-0.10143 0.0085-0.10143-0.05071v-4.2431c0-0.05917 0.0761-0.08452 0.10988-0.04226l4.7333 5.663c0.15214 0.18595 0.38035 0.28738 0.61702 0.28738h0.16904c0.44797 0 0.81142-0.36345 0.81142-0.81142v-5.9842c-8e-3 -0.44797-0.3719-0.81142-0.81987-0.81142-0.27892 0-0.54095 0.14369-0.69308 0.38881z" fill="#fff" stroke-width=".084523" />
    </g>
  </g>
</svg>
