<?xml version="1.0" encoding="UTF-8" standalone="no"?>
<svg
   class="h-5 w-5"
   viewBox="0 0 20 20"
   fill="currentColor"
   version="1.1"
   id="svg4436"
   sodipodi:docname="icon.svg"
   inkscape:version="1.1 (c68e22c387, 2021-05-23)"
   xmlns:inkscape="http://www.inkscape.org/namespaces/inkscape"
   xmlns:sodipodi="http://sodipodi.sourceforge.net/DTD/sodipodi-0.dtd"
   xmlns="http://www.w3.org/2000/svg"
   xmlns:svg="http://www.w3.org/2000/svg">
  <defs
     id="defs4440" />
  <sodipodi:namedview
     id="namedview4438"
     pagecolor="#ffffff"
     bordercolor="#666666"
     borderopacity="1.0"
     inkscape:pageshadow="2"
     inkscape:pageopacity="0.0"
     inkscape:pagecheckerboard="0"
     showgrid="false"
     inkscape:zoom="22.768838"
     inkscape:cx="7.6420236"
     inkscape:cy="8.12514"
     inkscape:window-width="1248"
     inkscape:window-height="824"
     inkscape:window-x="333"
     inkscape:window-y="111"
     inkscape:window-maximized="0"
     inkscape:current-layer="svg4436" />
  <g
     id="g6012"
     transform="translate(0,-0.0669444)">
    <path
       d="m 1.4243819,0.87125756 a 1.2250883,1.2250883 0 0 0 0,2.45017664 v 9.8007038 a 2.4501767,2.4501767 0 0 0 2.4501767,2.450177 h 3.1680785 l -1.5840393,1.584039 a 1.2250883,1.2250883 0 1 0 1.7322749,1.732275 L 10,16.079501 l 2.809128,2.809128 a 1.2250883,1.2250883 0 0 0 1.732274,-1.732275 l -1.584039,-1.584039 h 3.168079 a 2.4501767,2.4501767 0 0 0 2.450176,-2.450177 V 3.3214342 a 1.2250883,1.2250883 0 1 0 0,-2.45017664 z"
       id="path4434"
       style="fill:#0971ce;fill-opacity:1;stroke-width:1.22509" />
    <g
       id="g4829"
       transform="matrix(1.2250883,0,0,1.2250883,-201.80411,-47.432228)">
      <path
         d="m 175.18366,42.268495 -1.58904,2.358192 c -0.10988,0.160594 0.10143,0.354997 0.25357,0.219761 l 1.56368,-1.360822 c 0.0423,-0.03381 0.10142,-0.0085 0.10142,0.05072 v 4.251508 c 0,0.05917 -0.0761,0.08452 -0.10988,0.04226 l -4.73329,-5.663044 c -0.15214,-0.18595 -0.3719,-0.287378 -0.61702,-0.287378 h -0.16904 c -0.43952,0 -0.80297,0.363449 -0.80297,0.811421 v 5.984231 c 0,0.447972 0.36345,0.811421 0.81142,0.811421 0.27893,0 0.54095,-0.143689 0.69309,-0.388806 l 1.58903,-2.358192 c 0.10988,-0.160594 -0.10142,-0.354997 -0.25357,-0.21976 l -1.56367,1.352368 c -0.0423,0.03381 -0.10143,0.0085 -0.10143,-0.05071 V 43.5786 c 0,-0.05917 0.0761,-0.08452 0.10988,-0.04226 l 4.73329,5.663043 c 0.15214,0.18595 0.38035,0.287378 0.61702,0.287378 h 0.16904 c 0.44797,0 0.81142,-0.363449 0.81142,-0.811421 v -5.98423 c -0.008,-0.447972 -0.3719,-0.811421 -0.81987,-0.811421 -0.27892,0 -0.54095,0.143689 -0.69308,0.388806 z"
         id="path4816"
         style="fill:#ffffff;fill-opacity:1;stroke-width:0.084523" />
    </g>
  </g>
</svg>
