<svg width="215.95" height="54.071" version="1.1" viewBox="0 0 215.95 54.071" xmlns="http://www.w3.org/2000/svg">
 <path d="m45.16 0.7507v52.5a0.76 0.76 0 0 1-0.75 0.75h-5.46a7.49 7.49 0 0 1-6.3-3.43l-24.78-38.3 0.85 19.13v21.85a0.76 0.76 0 0 1-0.75 0.75h-7.22a0.76 0.76 0 0 1-0.75-0.75v-52.5a0.76 0.76 0 0 1 0.75-0.75h5.43a7.52 7.52 0 0 1 6.3 3.42l24.78 38.24-0.77-19.06v-21.85a0.75 0.75 0 0 1 0.75-0.75h7.22a0.76 0.76 0 0 1 0.7 0.75z"/>
 <path d="m118.95 54.001h-7.64a0.75 0.75 0 0 1-0.7-1l20.24-52.28a1.14 1.14 0 0 1 1.1-0.72h9.57a1.14 1.14 0 0 1 1.05 0.72l20.18 52.28a0.75 0.75 0 0 1-0.7 1h-7.64a0.76 0.76 0 0 1-0.71-0.48l-16.31-43a0.75 0.75 0 0 0-1.41 0l-16.31 43a0.76 0.76 0 0 1-0.72 0.48z"/>
 <path d="m215.79 52.791-15.18-19.39c8.57-1.62 13.58-7.4 13.58-16.27 0-10.19-6.63-17.13-18.36-17.13h-21.17a1.12 1.12 0 0 0-1.12 1.12 7.2 7.2 0 0 0 7.2 7.2h14.21c7.09 0 10.49 3.63 10.49 8.87s-3.32 9-10.49 9h-20.29a1.13 1.13 0 0 0-1.12 1.13v26a0.75 0.75 0 0 0 0.75 0.75h7.22a0.76 0.76 0 0 0 0.75-0.75v-19.45h8.33l13.17 17.19a7.51 7.51 0 0 0 6 2.94h5.48a0.75 0.75 0 0 0 0.55-1.21z"/>
 <path d="m96.12 6.9888e-4h-33.5a1 1 0 0 0-1 1 7.33 7.33 0 0 0 7.33 7.33h27.17a0.74 0.74 0 0 0 0.75-0.75v-6.83a0.75 0.75 0 0 0-0.75-0.75zm0 45.67h-25a0.76 0.76 0 0 1-0.75-0.75v-13.54a0.75 0.75 0 0 1 0.75-0.75h23.11a0.75 0.75 0 0 0 0.75-0.75v-6.88a0.75 0.75 0 0 0-0.75-0.75h-31.49a1.13 1.13 0 0 0-1.12 1.13v29.46a1.12 1.12 0 0 0 1.12 1.12h33.38a0.75 0.75 0 0 0 0.75-0.75v-6.83a0.74 0.74 0 0 0-0.75-0.71z"/>
</svg>
