<svg width="494" height="444" fill="none" version="1.1" viewBox="0 0 494 444" xmlns="http://www.w3.org/2000/svg">
 <g stroke="#CBD5E1" stroke-dasharray="20 5" stroke-width="2.5">
  <path d="m69.862 155.65 137.86-111.89"/>
  <path d="m77.402 176.09 158.55-30.853"/>
  <path d="m170.25 259.28 75.39-93.598"/>
  <path d="m183.17 279.72h138.93"/>
  <path d="m173.48 299.08 120.62 89.295"/>
  <path d="m268.26 164.6 65.697 95.75"/>
  <path d="m279.03 144.16 95.853-11.834"/>
  <path d="m382.42 150.62-26.925 110.81"/>
  <path d="m247.57 124.45-20.463-71.005"/>
  <path d="m380.26 114.04-144.54-71.352"/>
  <path d="m409.34 153.84 51.696 132.33"/>
  <path d="m344.72 306.62-28.002 80.688"/>
  <path d="m367.34 291.55 81.852 15.062"/>
  <path d="m328.57 409.9 135.7-87.143"/>
  <path d="m67.709 194.38 81.852 69.93"/>
  <path d="m40.784 193.3 31.233 154.92"/>
  <path d="m144.18 299.81-48.465 49.488"/>
 </g>
 <g fill="#64748B">
  <path d="m247.06 12.437-21.558-12.437-21.567 12.437-1.379 0.7954v26.431l21.573 12.362 1.373 0.7885 1.372-0.7885 21.566-12.362v-26.431l-1.38-0.7954zm-21.558-9.2695 18.813 10.853-18.813 10.839-18.821-10.839 18.821-10.853zm-1.373 45.697-18.827-10.791v-21.68l18.827 10.846v21.624zm21.565-10.791-18.82 10.791v-21.624l18.82-10.846v21.68z"/>
  <path d="m417.23 118.95-21.558-12.438-21.567 12.438-1.379 0.795v26.431l21.572 12.362 1.374 0.789 1.372-0.789 21.566-12.362v-26.431l-1.38-0.795zm-21.558-9.27 18.813 10.854-18.813 10.839-18.821-10.839 18.821-10.854zm-1.374 45.697-18.827-10.791v-21.68l18.827 10.847v21.624zm21.566-10.791-18.82 10.791v-21.624l18.82-10.847v21.68z"/>
  <path d="m75.821 160.9-21.558-12.438-21.566 12.438-1.3794 0.795v26.431l21.573 12.362 1.3731 0.789 1.3725-0.789 21.566-12.362v-26.431l-1.3799-0.795zm-21.558-9.27 18.813 10.853-18.813 10.84-18.821-10.84 18.821-10.853zm-1.3731 45.697-18.827-10.791v-21.68l18.827 10.846v21.625zm21.566-10.791-18.82 10.791v-21.625l18.82-10.846v21.68z"/>
  <path d="m276.14 130.78-21.558-12.437-21.567 12.437-1.379 0.795v26.431l21.573 12.363 1.373 0.788 1.372-0.788 21.566-12.363v-26.431l-1.38-0.795zm-21.558-9.27 18.813 10.854-18.813 10.839-18.821-10.839 18.821-10.854zm-1.373 45.697-18.827-10.791v-21.68l18.827 10.847v21.624zm21.565-10.791-18.82 10.791v-21.624l18.82-10.847v21.68z"/>
  <path d="m365.53 265.26-21.558-12.437-21.567 12.437-1.379 0.796v26.431l21.573 12.362 1.373 0.789 1.372-0.789 21.566-12.362v-26.431l-1.38-0.796zm-21.558-9.269 18.813 10.853-18.813 10.839-18.821-10.839 18.821-10.853zm-1.373 45.697-18.827-10.792v-21.679l18.827 10.846v21.625zm21.565-10.792-18.82 10.792v-21.625l18.82-10.846v21.679z"/>
  <path d="m492.62 293.23-21.558-12.437-21.567 12.437-1.379 0.796v26.431l21.573 12.362 1.373 0.788 1.372-0.788 21.566-12.362v-26.431l-1.38-0.796zm-21.558-9.269 18.813 10.853-18.813 10.839-18.821-10.839 18.821-10.853zm-1.373 45.696-18.827-10.791v-21.68l18.827 10.847v21.624zm21.565-10.791-18.82 10.791v-21.624l18.82-10.847v21.68z"/>
  <path d="m103.82 353.48-21.558-12.437-21.566 12.437-1.3794 0.796v26.431l21.573 12.362 1.3731 0.789 1.3725-0.789 21.566-12.362v-26.431l-1.38-0.796zm-21.558-9.269 18.813 10.853-18.813 10.839-18.821-10.839 18.821-10.853zm-1.3731 45.697-18.827-10.791v-21.68l18.827 10.846v21.625zm21.565-10.791-18.82 10.791v-21.625l18.82-10.846v21.68z"/>
  <path d="m327.84 393.28-21.558-12.437-21.567 12.437-1.379 0.796v26.431l21.573 12.362 1.373 0.789 1.372-0.789 21.566-12.362v-26.431l-1.38-0.796zm-21.558-9.269 18.813 10.853-18.813 10.84-18.821-10.84 18.821-10.853zm-1.373 45.697-18.827-10.791v-21.68l18.827 10.846v21.625zm21.565-10.791-18.82 10.791v-21.625l18.82-10.846v21.68z"/>
  <path d="m180.29 265.26-21.558-12.437-21.567 12.437-1.379 0.796v26.431l21.573 12.362 1.373 0.789 1.372-0.789 21.566-12.362v-26.431l-1.38-0.796zm-21.558-9.269 18.813 10.853-18.813 10.839-18.821-10.839 18.821-10.853zm-1.373 45.697-18.827-10.792v-21.679l18.827 10.846v21.625zm21.565-10.792-18.82 10.792v-21.625l18.82-10.846v21.679z"/>
 </g>
 <path d="m13.22 441.56c-0.52 0.08-0.86 0.12-1.02 0.12-0.4 0-0.88-0.08-1.44-0.24-0.26-0.08-0.45-0.17-0.57-0.27s-0.25997-0.25-0.41997-0.45c-0.14-0.18-0.25-0.32-0.33-0.42-0.36-0.5-0.54-0.94-0.54-1.32 0-0.3 0.14-0.41 0.42-0.33 0.2 0.1 0.42 0.3 0.66 0.6 0.23997 0.24 0.49997 0.41 0.77997 0.51 0.28 0.12 0.62 0.18 1.02 0.18 0.14 0 0.41-0.02 0.81-0.06 0.48-0.08 1.04-0.23 1.68-0.45s1.11-0.45 1.41-0.69c0.96-0.66 1.74-1.19 2.34-1.59 0.62-0.4 1.01-0.65 1.17-0.75 0.04-0.1 0.25-0.22 0.63-0.36l0.81-0.78c0.52-0.56 0.86-0.9 1.02-1.02 0.02-0.14 0.05-0.28 0.09-0.42 0.06-0.16 0.09-0.28 0.09-0.36 0.24-0.26 0.6-0.88 1.08-1.86 0.48-1 0.81-1.86 0.99-2.58 0.18-0.94 0.27-1.77 0.27-2.49 0-1.22-0.22-2.24-0.66-3.06-0.42-0.84-1.04-1.61-1.86-2.31-0.42-0.34-1.12-0.71-2.1-1.11-0.96-0.42-1.52-0.6-1.68-0.54-0.1 0.02-0.37 0.6-0.81 1.74-0.44 1.12-1.04 2.74-1.8 4.86l-0.96 2.67c-0.08 0.32-0.17 0.62-0.27 0.9s-0.18 0.53-0.24 0.75c-0.26 0.74-0.39 1.16-0.39 1.26-0.22 0.34-0.4 0.79-0.54 1.35-0.12 0.54-0.26 1.47-0.42 2.79-0.18 0.66-0.26 0.96-0.24 0.9-0.08 0.34-0.15 0.62-0.21 0.84s-0.12 0.32-0.18 0.3l-0.12 0.12c0 0.12-0.09 0.18-0.27 0.18-0.16 0-0.34-0.04-0.54-0.12-0.2-0.1-0.36-0.21-0.48-0.33-0.08-0.28-0.12-0.48-0.12-0.6 0-0.26 0.08-0.66 0.24-1.2 0.16-0.68 0.42-1.63 0.78-2.85 0.38-1.24 0.7-2.25 0.96-3.03 0.14-0.34 0.34-0.98 0.6-1.92 0.22-0.74 0.46-1.5 0.72-2.28 0.28-0.78 0.48-1.27 0.6-1.47 0.04-0.14 0.17-0.54 0.39-1.2 0.24-0.66 0.52-1.39 0.84-2.19l0.21-0.99-0.33-0.15c-0.18 0.06-0.34 0.09-0.48 0.09-0.1 0-0.21-0.03-0.33-0.09-0.2 0.06-0.48-0.02-0.84-0.24-0.34-0.24-0.53-0.46-0.57-0.66-0.04-0.06-0.07-0.15-0.09-0.27v-0.24c0.04-0.2 0.44-0.38 1.2-0.54 0.76-0.18 1.59-0.27 2.49-0.27 0.38 0 0.67 0.01 0.87 0.03 0.36 0.02 0.7 0.08 1.02 0.18 0.34 0.1 0.75 0.25 1.23 0.45l0.72 0.27c0.64 0.24 1.32 0.66 2.04 1.26 0.74 0.6 1.39 1.31 1.95 2.13 0.58 0.8 0.97 1.62 1.17 2.46 0.06 0.26 0.12 0.62 0.18 1.08s0.09 0.87 0.09 1.23c0 0.42-0.04 0.68-0.12 0.78-0.06 0.08-0.09 0.18-0.09 0.3s0.04 0.19 0.12 0.21c-0.04 0.12-0.11 0.34-0.21 0.66s-0.21 0.66-0.33 1.02c-0.12 1.26-0.68 2.74-1.68 4.44-0.1 0-0.18 0.02-0.24 0.06-0.06 0.02-0.05 0.04 0.03 0.06 0 0.1-0.11 0.29-0.33 0.57-0.06 0.04-0.19 0.19-0.39 0.45-0.18 0.24-0.31 0.39-0.39 0.45-0.02 0.14-0.08 0.26-0.18 0.36-0.1 0.08-0.19 0.12-0.27 0.12l-0.06 0.03c-0.02 0-0.03 0.03-0.03 0.09-0.36 0.52-1.02 1.16-1.98 1.92-0.94 0.76-1.78 1.3-2.52 1.62-0.2 0.14-0.44 0.27-0.72 0.39-0.26 0.12-0.44 0.2-0.54 0.24-0.16 0.14-0.57 0.33-1.23 0.57-0.64 0.26-1.16 0.43-1.56 0.51zm13.804-3.93c-0.06-0.12-0.16-0.24-0.3-0.36-0.12-0.14-0.18-0.23-0.18-0.27 0-0.22-0.05-0.39-0.15-0.51-0.04-0.04-0.06-0.13-0.06-0.27 0-0.32 0.15-0.86 0.45-1.62 0.32-0.78 0.73-1.62 1.23-2.52 0.12-0.12 0.27-0.33 0.45-0.63 0.2-0.3 0.33-0.47 0.39-0.51 0-0.08 0.03-0.15 0.09-0.21 0.06-0.08 0.13-0.12 0.21-0.12v-0.18c0-0.18 0.33-0.61 0.99-1.29 0.66-0.7 1.2-1.18 1.62-1.44 0.5-0.34 1.01-0.51 1.53-0.51 0.36 0 0.67 0.1 0.93 0.3 0.1 0.12 0.56 0.55 1.38 1.29l1.11 0.99-0.54 1.5c-0.18 0.54-0.27 1.03-0.27 1.47 0 0.76 0.22 1.49 0.66 2.19 0.1 0.22 0.3 0.43 0.6 0.63s0.6 0.32 0.9 0.36c0.44 0.08 0.66 0.3 0.66 0.66 0 0.4-0.18 0.64-0.54 0.72-0.08 0.02-0.2 0.03-0.36 0.03-1.18 0-2.2-0.83-3.06-2.49-0.08-0.12-0.19-0.34-0.33-0.66-0.12-0.32-0.19-0.54-0.21-0.66-0.12 0.16-0.27 0.35-0.45 0.57s-0.35 0.41-0.51 0.57c-2.18 2.18-3.9 3.27-5.16 3.27-0.4 0-0.76-0.1-1.08-0.3zm1.08-1.68c0 0.1 0.1 0.13 0.3 0.09 0.22-0.04 0.48-0.14 0.78-0.3 0.32-0.16 0.64-0.37 0.96-0.63 1.72-1.48 2.96-2.77 3.72-3.87l0.66-1.08c-0.2-0.42-0.41-0.72-0.63-0.9-0.22-0.2-0.42-0.3-0.6-0.3-0.42 0-1.08 0.53-1.98 1.59-0.9 1.04-1.72 2.27-2.46 3.69-0.18 0.34-0.34 0.69-0.48 1.05-0.14 0.34-0.23 0.56-0.27 0.66zm22.426 1.38c-0.4 0-0.73-0.08-0.99-0.24-0.26-0.18-0.48-0.47-0.66-0.87-0.18-0.64-0.27-1.28-0.27-1.92 0-0.3 0.03-0.51 0.09-0.63 0.08-0.08 0.11-0.25 0.09-0.51v-0.6c-0.02-0.46-0.16-0.69-0.42-0.69-0.18 0-0.38 0.07-0.6 0.21-1.12 0.7-2.06 1.3-2.82 1.8s-1.49 1.06-2.19 1.68c-0.28 0.32-0.49 0.6-0.63 0.84s-0.24 0.41-0.3 0.51c-0.06 0.08-0.14 0.12-0.24 0.12-0.12 0.04-0.2 0.06-0.24 0.06-0.1 0-0.22-0.05-0.36-0.15-0.14-0.12-0.23-0.2-0.27-0.24l-0.39-0.39c-0.18-0.2-0.28-0.34-0.3-0.42 0-0.16 0.06-0.53 0.18-1.11 0.14-0.58 0.25-0.95 0.33-1.11 0.06 0 0.15-0.12 0.27-0.36 0.12-0.26 0.23-0.46 0.33-0.6 0.06-0.3 0.32-0.99 0.78-2.07 0.28-0.48 0.47-0.88 0.57-1.2 0.12-0.32 0.2-0.72 0.24-1.2v-0.06c0-0.08 0.03-0.14 0.09-0.18 0.06-0.06 0.12-0.09 0.18-0.09 0.14-0.1 0.27-0.15 0.39-0.15 0.26 0 0.52 0.16 0.78 0.48 0.3 0.38 0.45 0.78 0.45 1.2 0 0.52-0.33 1.34-0.99 2.46-0.06 0.14-0.15 0.34-0.27 0.6-0.1 0.26-0.15 0.44-0.15 0.54l1.68-1.14c0.16-0.18 0.59-0.5 1.29-0.96s1.19-0.72 1.47-0.78c0.48-0.22 0.78-0.33 0.9-0.33 0.24 0 0.56 0.18 0.96 0.54 0.42 0.36 0.67 0.66 0.75 0.9 0 0.22 0.02 0.38 0.06 0.48 0.1 0.4 0.15 0.87 0.15 1.41 0 0.36-0.03 0.69-0.09 0.99-0.04 0.28-0.1 0.44-0.18 0.48 0 0.02 0.01 0.05 0.03 0.09s0.06 0.06 0.12 0.06v0.15c-0.16 0-0.18 0.17-0.06 0.51s0.28 0.6 0.48 0.78c0.2 0.2 0.3 0.4 0.3 0.6 0 0.24-0.18 0.41-0.54 0.51zm1.4458 3.75c-0.22 0-0.35-0.01-0.39-0.03s-0.1-0.11-0.18-0.27c0-0.12 0.04-0.24 0.12-0.36 0.08-0.1 0.18-0.22 0.3-0.36 0.34-0.34 0.71-0.75 1.11-1.23s0.67-0.85 0.81-1.11c0.14-0.44 0.29-1.03 0.45-1.77 0-0.4 0.05-0.65 0.15-0.75 0.12-0.12 0.23-0.18 0.33-0.18 0.24 0 0.42 0.45 0.54 1.35 0.04 0.28 0.06 0.49 0.06 0.63 0 0.46-0.17 1.09-0.51 1.89-0.08 0.2-0.33 0.54-0.75 1.02-0.4 0.5-0.64 0.75-0.72 0.75-0.1 0-0.24 0.09-0.42 0.27-0.06 0.06-0.18 0.1-0.36 0.12-0.16 0.02-0.34 0.03-0.54 0.03zm28.183-21.36c1.78 1.06 2.67 2.26 2.67 3.6 0 0.48-0.11 0.99-0.33 1.53-0.32 0.8-1.13 1.75-2.43 2.85-1.3 1.08-2.51 1.86-3.63 2.34-0.44 0.2-0.95 0.4-1.53 0.6s-1.15 0.39-1.71 0.57c-0.4 0.1-0.8 0.14-1.2 0.12l0.06 0.06c0.46 1.02 1.35 2.26 2.67 3.72 0.62 0.72 1.47 1.55 2.55 2.49 1.08 0.92 2.01 1.57 2.79 1.95 0.08 0.08 0.12 0.2 0.12 0.36 0 0.18-0.06 0.37-0.18 0.57-0.1 0.22-0.19 0.34-0.27 0.36-0.04 0.02-0.09 0.04-0.15 0.06s-0.13 0.03-0.21 0.03c-0.28 0-0.68-0.17-1.2-0.51-0.94-0.56-1.85-1.21-2.73-1.95-0.88-0.76-1.84-1.74-2.88-2.94-0.46-0.54-0.83-1.01-1.11-1.41-0.26-0.42-0.54-0.98-0.84-1.68l-0.06 0.18c-0.6 2.04-1.51 4.67-2.73 7.89-0.1 0.24-0.25 0.36-0.45 0.36-0.22 0-0.49-0.13-0.81-0.39l-0.21-0.21c-0.1-0.1-0.17-0.19-0.21-0.27-0.04-0.06-0.06-0.13-0.06-0.21 0-0.18 0.16-0.63 0.48-1.35l0.36-0.81c0.12-0.72 0.41-1.55 0.87-2.49 0.14-0.48 0.95-2.52 2.43-6.12l0.54-1.32 0.33-0.78c0.54-1.36 1.27-3.05 2.19-5.07 0.1-0.3 0.15-0.49 0.15-0.57 0-0.26-0.17-0.39-0.51-0.39-0.22-0.26-0.33-0.5-0.33-0.72s0.1-0.37 0.3-0.45l1.56-0.63c0.7-0.16 1.38-0.24 2.04-0.24 1.34 0 2.56 0.29 3.66 0.87zm-4.68 8.94c1.44-0.66 2.73-1.48 3.87-2.46 1.14-1 1.68-1.97 1.62-2.91 0-0.38-0.2-0.78-0.6-1.2s-0.81-0.69-1.23-0.81c-1.22-0.28-2.04-0.42-2.46-0.42-0.36 0-0.65 0.08-0.87 0.24-0.2 0.14-0.34 0.37-0.42 0.69 0 0.06-0.13 0.35-0.39 0.87-0.58 1.26-0.95 2.12-1.11 2.58l-0.69 1.41c-0.64 1.28-1.03 2.08-1.17 2.4-0.12 0.32-0.13 0.53-0.03 0.63 0.82-0.06 1.98-0.4 3.48-1.02zm13.525 9.99c-0.48-0.46-0.84-1.14-1.08-2.04-0.04-0.12-0.06-0.33-0.06-0.63v-0.63c-0.12 0.3-0.34 0.57-0.66 0.81-0.46 0.46-0.92 0.8-1.38 1.02-0.7 0.46-1.27 0.69-1.71 0.69-0.4 0-0.78-0.22-1.14-0.66-0.26-0.22-0.46-0.44-0.6-0.66-0.12-0.22-0.18-0.49-0.18-0.81 0-0.22 0.03-0.46 0.09-0.72 0.04-0.74 0.14-1.45 0.3-2.13 0.18-0.68 0.51-1.55 0.99-2.61 0.64-1.26 1.1-2.1 1.38-2.52 0.1-0.04 0.23-0.06 0.39-0.06 0.2 0 0.36 0.06 0.48 0.18 0.14 0.12 0.22 0.28 0.24 0.48 0.06 0.08 0.09 0.19 0.09 0.33 0 0.5-0.3 1.32-0.9 2.46-0.78 1.88-1.17 3.18-1.17 3.9 0 0.42 0.12 0.67 0.36 0.75 0.1 0.06 0.21 0.09 0.33 0.09 0.5 0 1.1-0.34 1.8-1.02s1.37-1.77 2.01-3.27c0.28-0.68 0.45-1.38 0.51-2.1-0.02-0.06-0.03-0.15-0.03-0.27 0-0.36 0.18-0.65 0.54-0.87 0.08-0.12 0.19-0.21 0.33-0.27 0.14-0.08 0.23-0.08 0.27 0l0.48-0.03c0.06-0.02 0.12 0.04 0.18 0.18 0.06 0.12 0.12 0.2 0.18 0.24 0.14 0.12 0.21 0.34 0.21 0.66 0 0.66-0.29 1.67-0.87 3.03-0.38 0.8-0.64 1.42-0.78 1.86-0.12 0.42-0.19 0.83-0.21 1.23 0 0.76 0.29 1.39 0.87 1.89 0.2 0.14 0.32 0.29 0.36 0.45s0.05 0.38 0.03 0.66c-0.04 0.18-0.16 0.33-0.36 0.45-0.18 0.1-0.38 0.15-0.6 0.15-0.26 0-0.49-0.07-0.69-0.21zm5.7635 0.18c-0.36-0.14-0.71-0.34-1.05-0.6-0.34-0.28-0.57-0.52-0.69-0.72v-0.21c0-0.1 0.03-0.16 0.09-0.18 0.06-0.04 0.17-0.06 0.33-0.06 0.34 0 0.88 0.04 1.62 0.12 0.44 0 0.94-0.05 1.5-0.15 0.56-0.12 0.87-0.25 0.93-0.39 0.06 0 0.09-0.01 0.09-0.03 0-0.04-0.08-0.14-0.24-0.3-0.04 0-0.13-0.03-0.27-0.09-0.14-0.08-0.23-0.12-0.27-0.12 0-0.08-0.09-0.18-0.27-0.3-0.18-0.14-0.38-0.26-0.6-0.36-0.58-0.48-0.99-0.83-1.23-1.05-0.24-0.24-0.33-0.41-0.27-0.51v-0.15c-0.14 0-0.3-0.19-0.48-0.57-0.16-0.4-0.24-0.77-0.24-1.11 0-0.36 0.15-0.86 0.45-1.5 0.32-0.64 0.68-1.16 1.08-1.56 0.56-0.52 1.28-1.07 2.16-1.65 0.9-0.58 1.61-0.95 2.13-1.11 0.34-0.14 0.6797-0.21 1.0197-0.21 0.32 0 0.59 0.07 0.81 0.21 0.26 0.16 0.51 0.39 0.75 0.69 0.26 0.3 0.43 0.57 0.51 0.81 0 0.44-0.05 0.87-0.15 1.29-0.08 0.4-0.21 0.6-0.39 0.6-0.02 0-0.05 0.01-0.09 0.03s-0.06 0.07-0.06 0.15-0.04 0.19-0.12 0.33c-0.08 0.12-0.19 0.24-0.33 0.36-0.44 0.32-0.8 0.48-1.08 0.48-0.22 0-0.36-0.11-0.4197-0.33-0.04-0.04-0.08-0.1-0.12-0.18s-0.09-0.12-0.15-0.12c-0.02 0-0.06-0.03-0.12-0.09-0.04-0.08-0.06-0.18-0.06-0.3 0-0.06 0.02-0.12 0.06-0.18 0.06-0.08 0.1-0.13 0.12-0.15 0.12 0 0.3197-0.23 0.5997-0.69 0.28-0.48 0.42-0.8 0.42-0.96 0-0.12-0.02-0.19-0.06-0.21-0.02-0.02-0.11-0.03-0.27-0.03-1.5597 0.7-2.5297 1.23-2.9097 1.59-0.06 0.12-0.11 0.2-0.15 0.24-0.02 0.04-0.07 0.06-0.15 0.06 0-0.18-0.53 0.5-1.59 2.04-0.04 0.04-0.09 0.16-0.15 0.36-0.04 0.2-0.06 0.37-0.06 0.51-0.04 0.16-0.06 0.25-0.06 0.27 0 0.08 0.03 0.16 0.09 0.24 0.08 0.08 0.18 0.17 0.3 0.27 0.12 0.08 0.24 0.17 0.36 0.27 1.04 0.78 1.76 1.37 2.16 1.77 0.42 0.38 0.67 0.7 0.75 0.96 0.26 0.4 0.39 0.76 0.39 1.08 0 0.24-0.09 0.45-0.27 0.63s-0.45 0.35-0.81 0.51c-0.22 0.1-0.59 0.18-1.11 0.24-0.52 0.08-1.03 0.12-1.53 0.12-0.28 0-0.58-0.02-0.9-0.06zm10.795-0.36c-0.68 0-1.27-0.14-1.77-0.42s-0.83-0.66-0.99-1.14c-0.14-0.36-0.21-0.56-0.21-0.6 0-0.12 0.07-0.21 0.21-0.27 0.14 0 0.3 0.06 0.48 0.18 0.2 0.12 0.36 0.2 0.48 0.24 0.3 0.28 0.71 0.42 1.23 0.42 0.4 0 0.76-0.08 1.08-0.24 0.34-0.16 0.53-0.35 0.57-0.57 0-0.1-0.1-0.45-0.3-1.05-0.5-0.72-0.89-1.45-1.17-2.19-0.26-0.76-0.39-1.4-0.39-1.92 0-0.38 0.11-0.77 0.33-1.17s0.52-0.74 0.9-1.02c0.5-0.52 1.1-0.99 1.8-1.41 0.72-0.42 1.37-0.71 1.95-0.87 0.24 0 0.53 0.03 0.87 0.09 0.36 0.06 0.61 0.13 0.75 0.21 0.22 0.08 0.43 0.3 0.63 0.66s0.3 0.7 0.3 1.02-0.17 0.76-0.51 1.32c-0.04 0.14-0.12 0.33-0.24 0.57s-0.18 0.39-0.18 0.45c-0.08 0.2-0.21 0.3-0.39 0.3s-0.36-0.08-0.54-0.24c-0.16-0.18-0.29-0.39-0.39-0.63-0.06-0.24-0.09-0.45-0.09-0.63 0-0.24 0.08-0.48 0.24-0.72 0.22-0.22 0.33-0.37 0.33-0.45s-0.11-0.12-0.33-0.12c-0.24 0-0.7 0.19-1.38 0.57s-1.22 0.78-1.62 1.2c-0.36 0.34-0.58 0.6-0.66 0.78-0.08 0.16-0.12 0.41-0.12 0.75 0 0.3 0.06 0.66 0.18 1.08 0.14 0.4 0.28 0.67 0.42 0.81 0.04 0.08 0.12 0.25 0.24 0.51 0.14 0.26 0.3 0.51 0.48 0.75 0.4 0.9 0.6 1.6 0.6 2.1 0 0.58-0.23 1-0.69 1.26-0.44 0.26-1.14 0.39-2.1 0.39zm12.775-12.66c-0.06 0.06-0.12 0.09-0.18 0.09-0.08 0-0.21-0.06-0.39-0.18-0.2-0.02-0.47-0.19-0.81-0.51-0.32-0.34-0.48-0.56-0.48-0.66-0.04-0.4 0.02-0.83 0.18-1.29s0.45-0.7 0.87-0.72c0.06 0 0.14 0.02 0.24 0.06 0.1 0.02 0.27 0.08 0.51 0.18 0.04 0.08 0.12 0.25 0.24 0.51 0.14 0.26 0.24 0.51 0.3 0.75 0.08 0.24 0.12 0.46 0.12 0.66 0 0.48-0.2 0.85-0.6 1.11zm-3.39 11.97c-0.3 0-0.57-0.19-0.81-0.57-0.22-0.38-0.35-0.76-0.39-1.14 0.08-0.76 0.14-1.3 0.18-1.62 0.16-0.74 0.41-1.75 0.75-3.03 0.36-1.3 0.58-2.03 0.66-2.19 0.06-0.1 0.15-0.15 0.27-0.15s0.25 0.04 0.39 0.12 0.26 0.17 0.36 0.27c0.16 0.22 0.24 0.47 0.24 0.75 0 0.42-0.2 1.3-0.6 2.64-0.28 1-0.46 1.71-0.54 2.13s-0.11 0.87-0.09 1.35c-0.02 0.14-0.06 0.38-0.12 0.72-0.04 0.32-0.08 0.52-0.12 0.6s-0.1 0.12-0.18 0.12zm5.895-0.06c-0.36 0.08-0.75-0.03-1.17-0.33s-0.67-0.63-0.75-0.99c-0.02-0.08-0.03-0.21-0.03-0.39 0-0.74 0.28-1.69 0.84-2.85 0.58-1.18 1.28-2.26 2.1-3.24 0.82-1 1.57-1.63 2.25-1.89 0.42-0.22 0.69-0.33 0.81-0.33s0.39 0.11 0.81 0.33c0.28 0.08 0.49 0.17 0.63 0.27s0.32 0.3 0.54 0.6c0.26 0.52 0.45 1.16 0.57 1.92 0.12 0.42 0.18 0.72 0.18 0.9 0 0.16-0.06 0.3-0.18 0.42l-0.12 0.12c-0.04 0.06-0.06 0.11-0.06 0.15 0 0.02 0.02 0.03 0.06 0.03 0 0.02-0.01 0.07-0.03 0.15-0.02 0.06-0.06 0.15-0.12 0.27-0.24 0.76-0.36 1.41-0.36 1.95 0 0.18 0.02 0.37 0.06 0.57 0.2 0.52 0.54 0.78 1.02 0.78 0.4 0 0.78-0.18 1.14-0.54 0.32-0.22 0.55-0.37 0.69-0.45 0.16-0.1 0.24-0.08 0.24 0.06 0.02 0.02 0.06 0.05 0.12 0.09s0.12 0.06 0.18 0.06c0.14 0 0.21 0.09 0.21 0.27s-0.07 0.38-0.21 0.6c-0.14 0.14-0.25 0.26-0.33 0.36s-0.12 0.18-0.12 0.24l-0.45 0.42c-0.38 0.22-0.83 0.33-1.35 0.33-0.54 0-0.97-0.11-1.29-0.33-0.28-0.2-0.55-0.49-0.81-0.87s-0.43-0.72-0.51-1.02l-0.15-0.3-0.87 0.57c-0.2 0.2-0.43 0.41-0.69 0.63-0.26 0.2-0.43 0.34-0.51 0.42-0.16 0.2-0.3 0.3-0.42 0.3h-0.3c0 0.14-0.2 0.3-0.6 0.48-0.38 0.16-0.72 0.24-1.02 0.24zm-0.3-1.62c0.22 0 0.78-0.31 1.68-0.93 0.9-0.64 1.47-1.11 1.71-1.41l0.87-0.9c0.32-0.36 0.57-0.77 0.75-1.23 0.2-0.46 0.3-0.88 0.3-1.26 0-0.34-0.05-0.58-0.15-0.72-0.08-0.24-0.2-0.36-0.36-0.36-0.08 0-0.31 0.07-0.69 0.21-0.38 0.24-0.92 0.79-1.62 1.65-0.68 0.86-1.29 1.75-1.83 2.67-0.54 0.9-0.81 1.56-0.81 1.98 0 0.06 0.02 0.12 0.06 0.18s0.07 0.1 0.09 0.12z" fill="#94A3B8"/>
 <path d="m361.48 79.727c-0.36 0.14-0.68 0.21-0.96 0.21-0.46 0-0.92-0.11-1.38-0.33-0.46-0.2-0.86-0.49-1.2-0.87-0.2-0.2-0.3-0.41-0.3-0.63 0-0.12 0.03-0.27 0.09-0.45 0.1-0.36 0.23-0.54 0.39-0.54 0.08 0 0.2 0.05 0.36 0.15 0.14 0.12 0.27 0.26 0.39 0.42 0.4 0.34 0.78 0.51 1.14 0.51 0.72 0 1.48-0.62 2.28-1.86l0.78-1.74c1.12-2.46 1.75-3.9 1.89-4.32 0-0.02 0.01-0.06 0.03-0.12s0.06-0.13 0.12-0.21c0.02-0.08 0.07-0.25 0.15-0.51 0.1-0.26 0.18-0.53 0.24-0.81l1.26-3.57c0.08-0.4 0.19-0.83 0.33-1.29 0.16-0.48 0.3-0.88 0.42-1.2 0.08-0.16 0.38-1.02 0.9-2.58 0.24-0.76 0.45-1.41 0.63-1.95 0.08-0.24 0.23-0.72 0.45-1.44s0.31-1.11 0.27-1.17l-1.68 0.3c-0.22 0.1-0.49 0.15-0.81 0.15-0.2 0-0.37-0.02-0.51-0.06-0.12-0.04-0.17-0.09-0.15-0.15v-0.15c-0.1 0.08-0.24 0.03-0.42-0.15-0.16-0.2-0.23-0.38-0.21-0.54 0-0.16 0.19-0.3 0.57-0.42 0.4-0.14 0.92-0.25 1.56-0.33l2.16-0.3c0.1-0.08 0.35-0.04 0.75 0.12 0.4 0.14 0.68 0.29 0.84 0.45 0.16 0.22 0.24 0.44 0.24 0.66 0 0.28-0.09 0.68-0.27 1.2-0.16 0.5-0.54 1.56-1.14 3.18l-0.99 2.79c-0.48 1.46-0.85 2.49-1.11 3.09-0.08 0.26-0.19 0.58-0.33 0.96-0.34 0.98-0.59 1.76-0.75 2.34-0.24 0.56-0.5 1.32-0.78 2.28 0 0.16-0.04 0.34-0.12 0.54s-0.17 0.35-0.27 0.45l-0.72 1.77-0.27 0.72c-0.04 0.12-0.15 0.39-0.33 0.81-0.16 0.42-0.31 0.73-0.45 0.93-0.06 0.16-0.17 0.37-0.33 0.63s-0.24 0.42-0.24 0.48c0 0.02-0.01 0.05-0.03 0.09-0.02 0.06-0.06 0.09-0.12 0.09-0.02 0.02-0.06 0.05-0.12 0.09-0.04 0.06-0.06 0.13-0.06 0.21-0.1 0.24-0.41 0.61-0.93 1.11s-0.94 0.82-1.26 0.96zm9.417-6.51c-0.06-0.12-0.16-0.24-0.3-0.36-0.12-0.14-0.18-0.23-0.18-0.27 0-0.22-0.05-0.39-0.15-0.51-0.04-0.04-0.06-0.13-0.06-0.27 0-0.32 0.15-0.86 0.45-1.62 0.32-0.78 0.73-1.62 1.23-2.52 0.12-0.12 0.27-0.33 0.45-0.63 0.2-0.3 0.33-0.47 0.39-0.51 0-0.08 0.03-0.15 0.09-0.21 0.06-0.08 0.13-0.12 0.21-0.12v-0.18c0-0.18 0.33-0.61 0.99-1.29 0.66-0.7 1.2-1.18 1.62-1.44 0.5-0.34 1.01-0.51 1.53-0.51 0.36 0 0.67 0.1 0.93 0.3 0.1 0.12 0.56 0.55 1.38 1.29l1.11 0.99-0.54 1.5c-0.18 0.54-0.27 1.03-0.27 1.47 0 0.76 0.22 1.49 0.66 2.19 0.1 0.22 0.3 0.43 0.6 0.63s0.6 0.32 0.9 0.36c0.44 0.08 0.66 0.3 0.66 0.66 0 0.4-0.18 0.64-0.54 0.72-0.08 0.02-0.2 0.03-0.36 0.03-1.18 0-2.2-0.83-3.06-2.49-0.08-0.12-0.19-0.34-0.33-0.66-0.12-0.32-0.19-0.54-0.21-0.66-0.12 0.16-0.27 0.35-0.45 0.57s-0.35 0.41-0.51 0.57c-2.18 2.18-3.9 3.27-5.16 3.27-0.4 0-0.76-0.1-1.08-0.3zm1.08-1.68c0 0.1 0.1 0.13 0.3 0.09 0.22-0.04 0.48-0.14 0.78-0.3 0.32-0.16 0.64-0.37 0.96-0.63 1.72-1.48 2.96-2.77 3.72-3.87l0.66-1.08c-0.2-0.42-0.41-0.72-0.63-0.9-0.22-0.2-0.42-0.3-0.6-0.3-0.42 0-1.08 0.53-1.98 1.59-0.9 1.04-1.72 2.27-2.46 3.69-0.18 0.34-0.34 0.69-0.48 1.05-0.14 0.34-0.23 0.56-0.27 0.66zm15.076 2.43c-0.28 0.04-0.49 0.06-0.63 0.06-0.74 0-1.35-0.23-1.83-0.69s-0.72-1.1-0.72-1.92c-0.08-0.88 0.11-1.97 0.57-3.27 0.48-1.3 1.08-2.39 1.8-3.27 0.5-0.58 0.93-1.05 1.29-1.41s0.69-0.6 0.99-0.72c0.42-0.18 0.89-0.27 1.41-0.27 0.36 0.08 0.71 0.23 1.05 0.45 0.36 0.22 0.54 0.44 0.54 0.66l0.15 0.15c0.12 0 0.23 0.15 0.33 0.45 0.1 0.28 0.15 0.59 0.15 0.93 0 0.28-0.05 0.52-0.15 0.72-0.08 0.38-0.22 0.71-0.42 0.99-0.18 0.28-0.36 0.42-0.54 0.42-0.22 0-0.33 0.06-0.33 0.18 0 0.08-0.04 0.12-0.12 0.12-0.1 0-0.22-0.06-0.36-0.18s-0.24-0.26-0.3-0.42c0-0.06 0.04-0.23 0.12-0.51s0.16-0.59 0.24-0.93c0.06-0.24 0.09-0.45 0.09-0.63 0-0.4-0.15-0.6-0.45-0.6-0.16 0-0.32 0.04-0.48 0.12-0.8 0.44-1.51 1.14-2.13 2.1s-1.14 2.28-1.56 3.96c-0.1 0.44-0.15 0.79-0.15 1.05 0 0.2 0.01 0.36 0.03 0.48 0.04 0.12 0.08 0.19 0.12 0.21 0.1 0.04 0.31 0.06 0.63 0.06 0.74 0 1.26-0.09 1.56-0.27 0.64-0.34 1.35-0.8 2.13-1.38 0.08-0.06 0.2-0.16 0.36-0.3 0.16-0.16 0.31-0.27 0.45-0.33 0.14-0.22 0.27-0.35 0.39-0.39 0.12-0.06 0.31-0.09 0.57-0.09 0.26 0.08 0.47 0.19 0.63 0.33 0.16 0.12 0.16 0.22 0 0.3-0.06 0-0.1 0.02-0.12 0.06s-0.03 0.07-0.03 0.09c0.04 0.1-0.12 0.35-0.48 0.75s-0.76 0.78-1.2 1.14c-0.44 0.34-0.74 0.51-0.9 0.51-0.08 0-0.15 0.01-0.21 0.03s-0.09 0.07-0.09 0.15-0.31 0.27-0.93 0.57c-0.6 0.28-1.09 0.46-1.47 0.54zm10.544-0.81c-0.3 0.06-0.52 0.09-0.66 0.09-0.12 0-0.22-0.02-0.3-0.06-0.08-0.06-0.19-0.16-0.33-0.3-0.44-0.22-0.79-0.53-1.05-0.93-0.24-0.42-0.34-0.79-0.3-1.11 0.08-0.92 0.34-1.93 0.78-3.03 0.46-1.1 1-2.07 1.62-2.91s1.22-1.36 1.8-1.56c0.36-0.14 0.66-0.21 0.9-0.21 0.48 0 0.82 0.2 1.02 0.6 0.14 0.28 0.21 0.49 0.21 0.63 0 0.24-0.14 0.4-0.42 0.48-0.06 0-0.13 0.03-0.21 0.09s-0.12 0.12-0.12 0.18c0.02 0.02 0.11 0.03 0.27 0.03 0.34 0 0.76-0.05 1.26-0.15s0.82-0.21 0.96-0.33c0.12-0.06 0.22-0.09 0.3-0.09l0.42 0.06c0.34 0.1 0.51 0.22 0.51 0.36 0 0.08 0.03 0.16 0.09 0.24 0.06 0.06 0.13 0.09 0.21 0.09 0.12 0.02 0.1 0.1-0.06 0.24-0.14 0.14-0.42 0.37-0.84 0.69l-0.45 0.27c-0.18 0.12-0.29 0.22-0.33 0.3-0.02 0.08-0.01 0.19 0.03 0.33 0.08 0.18 0.12 0.4 0.12 0.66 0 0.66-0.29 1.39-0.87 2.19-0.56 0.8-1.27 1.5-2.13 2.1-0.84 0.6-1.65 0.95-2.43 1.05zm-0.51-1.32c0.12 0 0.42-0.12 0.9-0.36 0.26-0.26 0.47-0.42 0.63-0.48 0.14 0 0.33-0.1 0.57-0.3 0.24-0.22 0.61-0.65 1.11-1.29 0.38-0.44 0.66-0.81 0.84-1.11 0.2-0.3 0.3-0.59 0.3-0.87 0-0.12-0.01-0.21-0.03-0.27s-0.09-0.11-0.21-0.15c-0.1-0.06-0.2-0.11-0.3-0.15-0.18 0-0.35-0.04-0.51-0.12-0.14-0.1-0.35-0.26-0.63-0.48l-0.48-0.6-0.51 0.51c-0.48 0.48-0.97 1.27-1.47 2.37-0.5 1.08-0.78 1.92-0.84 2.52-0.02 0.28 0.02 0.48 0.12 0.6 0.12 0.1 0.29 0.16 0.51 0.18zm10.276 1.56c-0.08 0.02-0.2 0.03-0.36 0.03-0.5 0-0.98-0.25-1.44-0.75-0.1-0.14-0.15-0.25-0.15-0.33s0.03-0.15 0.09-0.21 0.14-0.09 0.24-0.09c0.08 0 0.13-0.1 0.15-0.3 0.04-0.22 0.08-0.52 0.12-0.9 0.02-0.24 0.07-0.47 0.15-0.69 0.08-0.24 0.12-0.4 0.12-0.48 0.02-0.06 0.04-0.22 0.06-0.48 0.04-0.28 0.1-0.52 0.18-0.72 0.12-0.52 0.31-1.25 0.57-2.19 0.28-0.96 0.51-1.68 0.69-2.16 0.04-0.36 0.25-0.91 0.63-1.65 0.38-1.06 0.97-2.49 1.77-4.29s1.29-2.82 1.47-3.06c0.18-0.14 0.35-0.21 0.51-0.21 0.26 0 0.51 0.12 0.75 0.36 0.16 0.22 0.24 0.43 0.24 0.63 0 0.26-0.13 0.55-0.39 0.87-0.08 0.14-0.17 0.31-0.27 0.51l-0.3 0.54c-0.12 0.36-0.38 0.96-0.78 1.8-0.56 1.16-1.02 2.25-1.38 3.27-0.14 0.32-0.29 0.69-0.45 1.11-0.14 0.42-0.24 0.66-0.3 0.72-0.08 0.36-0.2 0.72-0.36 1.08-0.26 0.8-0.42 1.37-0.48 1.71l1.08-1.05c0.82-0.88 1.62-1.58 2.4-2.1 0.78-0.54 1.43-0.81 1.95-0.81 0.42 0 0.88 0.16 1.38 0.48s0.83 0.67 0.99 1.05c0.14 0.34 0.21 0.66 0.21 0.96 0 0.86-0.41 1.81-1.23 2.85-0.2 0.36-0.46 0.72-0.78 1.08-0.3 0.34-0.57 0.6-0.81 0.78-0.54 0.5-0.89 0.81-1.05 0.93-0.22 0.16-0.43 0.3-0.63 0.42-0.18 0.1-0.4 0.19-0.66 0.27-0.38 0.26-0.9 0.47-1.56 0.63-0.64 0.14-1.43 0.27-2.37 0.39zm0.78-1.53c0.24 0 0.53-0.04 0.87-0.12s0.65-0.22 0.93-0.42c0.86-0.44 1.63-1 2.31-1.68s1.2-1.37 1.56-2.07c0.38-0.7 0.57-1.29 0.57-1.77 0-0.4-0.17-0.6-0.51-0.6-0.28 0-0.68 0.17-1.2 0.51s-1.1 0.82-1.74 1.44c-0.46 0.42-1.06 1.06-1.8 1.92 0 0-0.18 0.21-0.54 0.63-0.04 0.06-0.13 0.21-0.27 0.45-0.14 0.22-0.22 0.42-0.24 0.6-0.06 0.3-0.09 0.54-0.09 0.72 0 0.26 0.05 0.39 0.15 0.39zm8.477 4.8c-0.22 0-0.35-0.01-0.39-0.03s-0.1-0.11-0.18-0.27c0-0.12 0.04-0.24 0.12-0.36 0.08-0.1 0.18-0.22 0.3-0.36 0.34-0.34 0.71-0.75 1.11-1.23s0.67-0.85 0.81-1.11c0.14-0.44 0.29-1.03 0.45-1.77 0-0.4 0.05-0.65 0.15-0.75 0.12-0.12 0.23-0.18 0.33-0.18 0.24 0 0.42 0.45 0.54 1.35 0.04 0.28 0.06 0.49 0.06 0.63 0 0.46-0.17 1.09-0.51 1.89-0.08 0.2-0.33 0.54-0.75 1.02-0.4 0.5-0.64 0.75-0.72 0.75-0.1 0-0.24 0.09-0.42 0.27-0.06 0.06-0.18 0.1-0.36 0.12-0.16 0.02-0.34 0.03-0.54 0.03zm18.253-0.81c-0.98-0.36-1.71-0.92-2.19-1.68-0.46-0.78-0.69-1.87-0.69-3.27 0-1.24 0.2-2.86 0.6-4.86 0.3-1.46 0.81-3.2 1.53-5.22 0.74-2.04 1.49-3.73 2.25-5.07 0.44-0.76 0.78-1.26 1.02-1.5s0.48-0.34 0.72-0.3c0.32 0.08 0.57 0.24 0.75 0.48 0.18 0.22 0.27 0.46 0.27 0.72 0 0.42-0.2 0.76-0.6 1.02-0.16 0.18-0.38 0.54-0.66 1.08-0.28 0.52-0.46 0.85-0.54 0.99l-0.72 1.35c-0.7 2-1.22 3.54-1.56 4.62-0.32 1.08-0.58 2.22-0.78 3.42-0.28 1.34-0.46 2.33-0.54 2.97-0.06 0.62-0.09 1.11-0.09 1.47v0.69l0.24 0.48c0.1 0.18 0.19 0.32 0.27 0.42 0.08 0.08 0.17 0.13 0.27 0.15 0.2 0.1 0.45 0.15 0.75 0.15 0.54 0 1.1-0.17 1.68-0.51 0.08-0.16 0.19-0.28 0.33-0.36 0.16-0.1 0.26-0.16 0.3-0.18 0.04 0.06 0.07 0.09 0.09 0.09 0.06 0 0.11-0.07 0.15-0.21v-0.03c0-0.1 0.09-0.24 0.27-0.42 0.2-0.08 0.53-0.39 0.99-0.93s0.88-1.1 1.26-1.68c0.4-0.58 0.6-0.93 0.6-1.05 0-0.1 0.05-0.21 0.15-0.33l0.24-0.24c0.14-0.14 0.49-0.75 1.05-1.83 0.58-1.08 1.11-2.12 1.59-3.12 0.3-0.98 0.71-2.36 1.23-4.14 0.54-1.78 0.86-2.92 0.96-3.42 0.04-0.26 0.1-0.48 0.18-0.66s0.13-0.3 0.15-0.36c0.14-0.04 0.35 0.02 0.63 0.18 0.3 0.14 0.49 0.23 0.57 0.27 0.1 0.12 0.15 0.29 0.15 0.51 0 0.24-0.09 0.74-0.27 1.5-0.1 0.4-0.23 1-0.39 1.8-0.32 1.26-0.7 2.45-1.14 3.57s-1.01 2.47-1.71 4.05c-0.08 0.18-0.17 0.38-0.27 0.6-0.1 0.2-0.2 0.43-0.3 0.69v0.18c-0.24 0.14-0.43 0.35-0.57 0.63-0.06 0.1-0.14 0.24-0.24 0.42-0.08 0.16-0.17 0.27-0.27 0.33-0.06 0.18-0.12 0.33-0.18 0.45-0.04 0.12-0.07 0.2-0.09 0.24-0.02 0.12-0.11 0.23-0.27 0.33s-0.26 0.16-0.3 0.18c-0.08 0.04-0.14 0.13-0.18 0.27s-0.08 0.23-0.12 0.27c-0.72 1.06-1.53 2.03-2.43 2.91-0.88 0.86-1.71 1.43-2.49 1.71-0.4 0.16-0.75 0.24-1.05 0.24-0.26 0-0.46-0.02-0.6-0.06zm14.292-0.42 0.03-0.09c0-0.2-0.17-0.31-0.51-0.33-0.42-0.26-0.8-0.6-1.14-1.02-0.32-0.42-0.54-0.79-0.66-1.11-0.14-0.32-0.21-0.49-0.21-0.51 0-0.06 0.03-0.11 0.09-0.15 0.08-0.04 0.17-0.09 0.27-0.15 0.12-0.1 0.25-0.15 0.39-0.15 0.08 0 0.15 0.05 0.21 0.15 0.08 0.08 0.18 0.23 0.3 0.45 0.24 0.42 0.65 0.76 1.23 1.02 0.58 0.24 1.24 0.36 1.98 0.36 0.9 0 1.74-0.18 2.52-0.54 0.52-0.22 0.9-0.43 1.14-0.63 0.24-0.22 0.36-0.46 0.36-0.72 0-0.24-0.11-0.53-0.33-0.87-0.06-0.16-0.15-0.3-0.27-0.42-0.1-0.14-0.25-0.3-0.45-0.48-0.12-0.1-0.35-0.32-0.69-0.66-0.32-0.12-0.65-0.28-0.99-0.48l-0.63-0.3c-0.54-0.24-1.17-0.65-1.89-1.23-0.7-0.6-1.17-1.12-1.41-1.56-0.28-0.26-0.5-0.62-0.66-1.08s-0.24-0.96-0.24-1.5c0-0.72 0.15-1.38 0.45-1.98 0.24-0.54 0.77-1.29 1.59-2.25s1.45-1.59 1.89-1.89l0.78-0.75c0.02-0.08 0.05-0.12 0.09-0.12 0.04-0.02 0.07-0.03 0.09-0.03 0.06-0.04 0.27-0.13 0.63-0.27 0.36-0.16 0.74-0.43 1.14-0.81 1.36-0.66 2.45-1.13 3.27-1.41 0.84-0.3 1.53-0.45 2.07-0.45 0.76 0.04 1.4 0.28 1.92 0.72 0.54 0.42 0.86 0.98 0.96 1.68 0.04 0.12 0.06 0.3 0.06 0.54 0 0.72-0.26 1.5-0.78 2.34-0.52 0.82-1.11 1.42-1.77 1.8-0.5 0.22-0.85 0.33-1.05 0.33-0.14 0-0.24-0.05-0.3-0.15-0.04-0.1-0.05-0.26-0.03-0.48 0-0.18 0.06-0.38 0.18-0.6 0.14-0.24 0.44-0.62 0.9-1.14 0.82-1.18 1.23-2.06 1.23-2.64 0-0.34-0.15-0.52-0.45-0.54-0.22-0.06-0.78-0.01-1.68 0.15-0.88 0.16-1.32 0.29-1.32 0.39 0 0.02-0.01 0.06-0.03 0.12 0 0.04-0.03 0.05-0.09 0.03-0.08-0.02-0.82 0.4-2.22 1.26-1.4 0.84-2.12 1.31-2.16 1.41-0.02 0.1-0.1 0.21-0.24 0.33-0.12 0.1-0.27 0.19-0.45 0.27-0.38 0.22-0.73 0.54-1.05 0.96s-0.7 1.02-1.14 1.8c-0.24 0.34-0.44 0.71-0.6 1.11-0.14 0.4-0.21 0.76-0.21 1.08 0 0.22 0.03 0.41 0.09 0.57 0.1 0.34 0.41 0.76 0.93 1.26 0.52 0.48 1.17 0.95 1.95 1.41 1.02 0.58 1.87 1.15 2.55 1.71 0.7 0.54 1.14 1 1.32 1.38 0.46 0.64 0.69 1.35 0.69 2.13 0 0.28-0.03 0.54-0.09 0.78-0.16 0.34-0.41 0.67-0.75 0.99-0.34 0.34-0.63 0.5-0.87 0.48-0.2 0.06-0.37 0.13-0.51 0.21-0.14 0.1-0.26 0.17-0.36 0.21-0.22 0.14-0.75 0.25-1.59 0.33-0.82 0.1-1.58 0.13-2.28 0.09l-1.2-0.36z" fill="#94A3B8"/>
 <path d="m81.614 335.94c61.684-130.96 243.89-194.54 284.22-203.56" stroke="#A855F7" stroke-dasharray="22 5" stroke-width="5"/>
 <circle cx="399.53" cy="130.01" r="37.96" fill="#C4C4C4"/>
 <circle cx="75.92" cy="364.42" r="37.96" fill="#C4C4C4"/>
</svg>
